<mxfile host="app.diagrams.net" modified="2024-03-24T09:00:15.156Z" agent="Mozilla/5.0 (Windows NT 10.0; Win64; x64) AppleWebKit/537.36 (KHTML, like Gecko) Chrome/122.0.0.0 Safari/537.36 Edg/122.0.0.0" etag="QYbCc-fwrP-_YXIIulTx" version="24.1.0" type="google">
  <diagram name="Page-1" id="9acpBOD01OO6-K0I4fGa">
    <mxGraphModel grid="1" page="1" gridSize="10" guides="1" tooltips="1" connect="1" arrows="1" fold="1" pageScale="1" pageWidth="827" pageHeight="1169" math="0" shadow="0">
      <root>
        <mxCell id="0" />
        <mxCell id="1" parent="0" />
        <mxCell id="3OcsrnXhCdomFxVhiIZx-4" value="" style="edgeStyle=orthogonalEdgeStyle;rounded=0;orthogonalLoop=1;jettySize=auto;html=1;" edge="1" parent="1" source="3OcsrnXhCdomFxVhiIZx-1" target="3OcsrnXhCdomFxVhiIZx-3">
          <mxGeometry relative="1" as="geometry" />
        </mxCell>
        <mxCell id="3OcsrnXhCdomFxVhiIZx-1" value="Start" style="ellipse;whiteSpace=wrap;html=1;" vertex="1" parent="1">
          <mxGeometry x="354" width="120" height="80" as="geometry" />
        </mxCell>
        <mxCell id="3OcsrnXhCdomFxVhiIZx-2" value="Prototype: int songay(int thang)" style="text;html=1;align=center;verticalAlign=middle;whiteSpace=wrap;rounded=0;" vertex="1" parent="1">
          <mxGeometry width="260" height="40" as="geometry" />
        </mxCell>
        <mxCell id="3OcsrnXhCdomFxVhiIZx-6" value="" style="edgeStyle=orthogonalEdgeStyle;rounded=0;orthogonalLoop=1;jettySize=auto;html=1;" edge="1" parent="1" source="3OcsrnXhCdomFxVhiIZx-3" target="3OcsrnXhCdomFxVhiIZx-5">
          <mxGeometry relative="1" as="geometry" />
        </mxCell>
        <mxCell id="3OcsrnXhCdomFxVhiIZx-3" value="Input thang" style="shape=parallelogram;perimeter=parallelogramPerimeter;whiteSpace=wrap;html=1;fixedSize=1;" vertex="1" parent="1">
          <mxGeometry x="354" y="130" width="120" height="60" as="geometry" />
        </mxCell>
        <mxCell id="3OcsrnXhCdomFxVhiIZx-7" value="Yes" style="edgeStyle=orthogonalEdgeStyle;rounded=0;orthogonalLoop=1;jettySize=auto;html=1;exitX=0;exitY=0.5;exitDx=0;exitDy=0;entryX=0;entryY=0.5;entryDx=0;entryDy=0;" edge="1" parent="1" source="3OcsrnXhCdomFxVhiIZx-5" target="3OcsrnXhCdomFxVhiIZx-3">
          <mxGeometry relative="1" as="geometry">
            <Array as="points">
              <mxPoint x="240" y="260" />
              <mxPoint x="240" y="160" />
            </Array>
          </mxGeometry>
        </mxCell>
        <mxCell id="3OcsrnXhCdomFxVhiIZx-9" value="No" style="edgeStyle=orthogonalEdgeStyle;rounded=0;orthogonalLoop=1;jettySize=auto;html=1;" edge="1" parent="1" source="3OcsrnXhCdomFxVhiIZx-5" target="3OcsrnXhCdomFxVhiIZx-8">
          <mxGeometry relative="1" as="geometry" />
        </mxCell>
        <mxCell id="3OcsrnXhCdomFxVhiIZx-5" value="(thang&amp;lt;1)||(thang &amp;gt;12)" style="rhombus;whiteSpace=wrap;html=1;" vertex="1" parent="1">
          <mxGeometry x="340" y="220" width="150" height="80" as="geometry" />
        </mxCell>
        <mxCell id="3OcsrnXhCdomFxVhiIZx-11" value="" style="edgeStyle=orthogonalEdgeStyle;rounded=0;orthogonalLoop=1;jettySize=auto;html=1;" edge="1" parent="1" source="3OcsrnXhCdomFxVhiIZx-8" target="3OcsrnXhCdomFxVhiIZx-10">
          <mxGeometry relative="1" as="geometry" />
        </mxCell>
        <mxCell id="3OcsrnXhCdomFxVhiIZx-17" value="" style="edgeStyle=orthogonalEdgeStyle;rounded=0;orthogonalLoop=1;jettySize=auto;html=1;" edge="1" parent="1" source="3OcsrnXhCdomFxVhiIZx-8" target="3OcsrnXhCdomFxVhiIZx-16">
          <mxGeometry relative="1" as="geometry" />
        </mxCell>
        <mxCell id="3OcsrnXhCdomFxVhiIZx-8" value="(thang ==2)?" style="rhombus;whiteSpace=wrap;html=1;" vertex="1" parent="1">
          <mxGeometry x="340" y="360" width="150" height="80" as="geometry" />
        </mxCell>
        <mxCell id="3OcsrnXhCdomFxVhiIZx-13" value="" style="edgeStyle=orthogonalEdgeStyle;rounded=0;orthogonalLoop=1;jettySize=auto;html=1;" edge="1" parent="1" source="3OcsrnXhCdomFxVhiIZx-10" target="3OcsrnXhCdomFxVhiIZx-12">
          <mxGeometry relative="1" as="geometry" />
        </mxCell>
        <mxCell id="3OcsrnXhCdomFxVhiIZx-15" value="" style="edgeStyle=orthogonalEdgeStyle;rounded=0;orthogonalLoop=1;jettySize=auto;html=1;" edge="1" parent="1" source="3OcsrnXhCdomFxVhiIZx-10" target="3OcsrnXhCdomFxVhiIZx-14">
          <mxGeometry relative="1" as="geometry" />
        </mxCell>
        <mxCell id="3OcsrnXhCdomFxVhiIZx-10" value="thang=={4,6,9,11}?" style="rhombus;whiteSpace=wrap;html=1;" vertex="1" parent="1">
          <mxGeometry x="340" y="505" width="150" height="80" as="geometry" />
        </mxCell>
        <mxCell id="3OcsrnXhCdomFxVhiIZx-19" value="" style="edgeStyle=orthogonalEdgeStyle;rounded=0;orthogonalLoop=1;jettySize=auto;html=1;" edge="1" parent="1" source="3OcsrnXhCdomFxVhiIZx-12" target="3OcsrnXhCdomFxVhiIZx-18">
          <mxGeometry relative="1" as="geometry" />
        </mxCell>
        <mxCell id="3OcsrnXhCdomFxVhiIZx-12" value="Display 31 ngày" style="shape=parallelogram;perimeter=parallelogramPerimeter;whiteSpace=wrap;html=1;fixedSize=1;" vertex="1" parent="1">
          <mxGeometry x="330" y="640" width="170" height="60" as="geometry" />
        </mxCell>
        <mxCell id="3OcsrnXhCdomFxVhiIZx-20" value="" style="edgeStyle=orthogonalEdgeStyle;rounded=0;orthogonalLoop=1;jettySize=auto;html=1;" edge="1" parent="1" source="3OcsrnXhCdomFxVhiIZx-14" target="3OcsrnXhCdomFxVhiIZx-18">
          <mxGeometry relative="1" as="geometry">
            <Array as="points">
              <mxPoint x="767" y="540" />
            </Array>
          </mxGeometry>
        </mxCell>
        <mxCell id="3OcsrnXhCdomFxVhiIZx-14" value="Display 30 ngày" style="shape=parallelogram;perimeter=parallelogramPerimeter;whiteSpace=wrap;html=1;fixedSize=1;" vertex="1" parent="1">
          <mxGeometry x="550" y="515" width="170" height="60" as="geometry" />
        </mxCell>
        <mxCell id="3OcsrnXhCdomFxVhiIZx-21" value="" style="edgeStyle=orthogonalEdgeStyle;rounded=0;orthogonalLoop=1;jettySize=auto;html=1;" edge="1" parent="1" source="3OcsrnXhCdomFxVhiIZx-16" target="3OcsrnXhCdomFxVhiIZx-18">
          <mxGeometry relative="1" as="geometry">
            <Array as="points">
              <mxPoint x="767" y="400" />
            </Array>
          </mxGeometry>
        </mxCell>
        <mxCell id="3OcsrnXhCdomFxVhiIZx-16" value="Display 28 ngày" style="shape=parallelogram;perimeter=parallelogramPerimeter;whiteSpace=wrap;html=1;fixedSize=1;" vertex="1" parent="1">
          <mxGeometry x="560" y="370" width="170" height="60" as="geometry" />
        </mxCell>
        <mxCell id="3OcsrnXhCdomFxVhiIZx-18" value="End" style="ellipse;whiteSpace=wrap;html=1;" vertex="1" parent="1">
          <mxGeometry x="707" y="630" width="120" height="80" as="geometry" />
        </mxCell>
      </root>
    </mxGraphModel>
  </diagram>
</mxfile>
